<?xml version="1.0" encoding="UTF-8"?>
<svg width="56px" height="61px" viewBox="0 0 56 61" version="1.1" xmlns="http://www.w3.org/2000/svg" xmlns:xlink="http://www.w3.org/1999/xlink">
    <!-- Generator: sketchtool 49.3 (51167) - http://www.bohemiancoding.com/sketch -->
    <title>A9EF4EAC-AD12-42EC-B3AC-40F9FCFBF65D</title>
    <desc>Created with sketchtool.</desc>
    <defs>
        <path d="M893.957458,316.710326 C880.409028,314.751126 870,303.091142 870,289 C870,273.536027 882.536027,261 898,261 C913.463973,261 926,273.536027 926,289 C926,302.694682 916.168457,314.093085 903.178496,316.522082 L900.121358,320.755042 C899.474643,321.650494 898.22447,321.852134 897.329019,321.205419 C897.155799,321.080316 897.003745,320.928262 896.878642,320.755042 L893.957458,316.710326 Z" id="path-1"></path>
    </defs>
    <g id="User" stroke="none" stroke-width="1" fill="none" fill-rule="evenodd">
        <g id="7.1-Stylist-Review-(User-Side)" transform="translate(-870.000000, -261.000000)">
            <g id="bubble">
                <use fill="#FFFFFF" fill-rule="evenodd" xlink:href="#path-1"></use>
                <path stroke="#DCDCDC" stroke-width="2" d="M894.100576,315.72062 L894.520009,315.781273 L897.689321,320.169552 C897.751873,320.256162 897.827899,320.332188 897.914509,320.39474 C898.362235,320.718098 898.987322,320.617277 899.310679,320.169552 L902.601824,315.612581 L902.994692,315.539119 C915.672857,313.168425 925,302.051026 925,289 C925,274.088312 912.911688,262 898,262 C883.088312,262 871,274.088312 871,289 C871,302.460101 880.910153,313.813191 894.100576,315.72062 Z"></path>
            </g>
        </g>
    </g>
</svg>