<svg xmlns="http://www.w3.org/2000/svg" xmlns:xlink="http://www.w3.org/1999/xlink" width="128" height="128" viewBox="0 0 128 128">
    <defs>
        <path id="a" d="M4 0h232a4 4 0 0 1 4 4v232a4 4 0 0 1-4 4H4a4 4 0 0 1-4-4V4a4 4 0 0 1 4-4z"/>
        <mask id="b" width="240" height="240" x="0" y="0" fill="#fff">
            <use xlink:href="#a"/>
        </mask>
    </defs>
    <g fill="none" fill-rule="evenodd" transform="translate(-56 -56)">
        <use stroke="#DCDCDC" stroke-dasharray="6,4" stroke-width="2" mask="url(#b)" xlink:href="#a"/>
        <path fill="#FFEFC0" d="M83.456 93.114l28.074-5.457a3.2 3.2 0 0 1 3.752 2.53l6.793 34.947a3.2 3.2 0 0 1-2.53 3.752l-28.075 5.457a3.2 3.2 0 0 1-3.752-2.53l-6.793-34.947a3.2 3.2 0 0 1 2.53-3.752zm13.696 21.192a1.6 1.6 0 0 0-2.029 1.105l-1.722 6.333a1.6 1.6 0 0 0 1.849 1.99l16.937-3.292a1.6 1.6 0 0 0 1.012-2.48l-6.119-8.856a1.6 1.6 0 0 0-2.736.173l-2.637 5.082a1.6 1.6 0 0 1-1.905.788l-2.65-.843z"/>
        <path fill="#FDDC78" d="M127.844 87.104l32.084 6.82a3.6 3.6 0 0 1 2.772 4.27l-8.274 38.93a3.6 3.6 0 0 1-4.27 2.772l-32.084-6.82a3.6 3.6 0 0 1-2.772-4.27l8.274-38.93a3.6 3.6 0 0 1 4.27-2.772zm5.078 27.842a1.8 1.8 0 0 0-2.566.25l-4.61 5.756a1.8 1.8 0 0 0 1.03 2.886l19.327 4.108a1.8 1.8 0 0 0 2.134-2.137l-2.536-11.844a1.8 1.8 0 0 0-2.893-1.023l-5.1 4.13a1.8 1.8 0 0 1-2.294-.023l-2.492-2.103z"/>
        <path fill="#FFF" d="M101 103h36a4 4 0 0 1 4 4v44a4 4 0 0 1-4 4h-36a4 4 0 0 1-4-4v-44a4 4 0 0 1 4-4z"/>
        <path fill="#FFCD35" d="M101 103h36a4 4 0 0 1 4 4v44a4 4 0 0 1-4 4h-36a4 4 0 0 1-4-4v-44a4 4 0 0 1 4-4zm11.815 28.977a2 2 0 0 0-2.737.866l-3.63 7.263a2 2 0 0 0 1.788 2.894h21.686a2 2 0 0 0 1.828-2.812l-5.42-12.194a2 2 0 0 0-3.385-.443l-4.507 5.597a2 2 0 0 1-2.505.506l-3.118-1.677z"/>
    </g>
</svg>
