<svg xmlns="http://www.w3.org/2000/svg" width="40" height="40" viewBox="0 0 40 40">
    <g fill="none" fill-rule="evenodd">
        <path fill="#FFCD35" d="M18.92 36.692l-2.248 1.442a2 2 0 0 1-2.856-.765l-1.227-2.374a2 2 0 0 0-1.87-1.079l-2.668.124a2 2 0 0 1-2.091-2.09l.124-2.67a2 2 0 0 0-1.08-1.869l-2.373-1.227a2 2 0 0 1-.765-2.856l1.442-2.249a2 2 0 0 0 0-2.158l-1.442-2.25a2 2 0 0 1 .765-2.855l2.374-1.227a2 2 0 0 0 1.079-1.87L5.96 8.051A2 2 0 0 1 8.05 5.96l2.67.124a2 2 0 0 0 1.869-1.08l1.227-2.373a2 2 0 0 1 2.856-.765l2.249 1.442a2 2 0 0 0 2.158 0l2.25-1.442a2 2 0 0 1 2.855.765l1.227 2.374a2 2 0 0 0 1.87 1.079l2.668-.124a2 2 0 0 1 2.091 2.09l-.124 2.67a2 2 0 0 0 1.08 1.869l2.373 1.227a2 2 0 0 1 .765 2.856l-1.442 2.249a2 2 0 0 0 0 2.158l1.442 2.25a2 2 0 0 1-.765 2.855l-2.374 1.227a2 2 0 0 0-1.079 1.87l.124 2.668a2 2 0 0 1-2.09 2.091l-2.67-.124a2 2 0 0 0-1.869 1.08l-1.227 2.373a2 2 0 0 1-2.856.765l-2.249-1.442a2 2 0 0 0-2.158 0z"/>
        <path fill="#FFF" d="M19.07 25.49l-2.009 1.055a1.639 1.639 0 0 1-2.378-1.727l.384-2.237a2 2 0 0 0-.575-1.77l-1.625-1.584a1.639 1.639 0 0 1 .908-2.795l2.246-.326a2 2 0 0 0 1.505-1.094l1.005-2.035a1.639 1.639 0 0 1 2.938 0l1.005 2.035a2 2 0 0 0 1.505 1.094l2.246.326a1.639 1.639 0 0 1 .908 2.795l-1.625 1.584a2 2 0 0 0-.575 1.77l.384 2.237a1.639 1.639 0 0 1-2.378 1.727L20.93 25.49a2 2 0 0 0-1.862 0z"/>
        <circle cx="20" cy="20" r="12" stroke="#FFF" stroke-width="2"/>
    </g>
</svg>
