<svg xmlns="http://www.w3.org/2000/svg" width="16" height="16" viewBox="0 0 16 16">
    <path fill="#231F20" fill-rule="evenodd" d="M1.771 2.784c0-.6.485-1.088 1.081-1.088.597 0 1.082.487 1.082 1.088 0 .6-.485 1.089-1.082 1.089a1.086 1.086 0 0 1-1.08-1.089M13.705 9.5A4.224 4.224 0 0 1 16 13.262L8.466 9.061 6.302 7.854 1.876 5.386a2.784 2.784 0 0 1-1.79-2.602A2.779 2.779 0 0 1 2.852 0 2.779 2.779 0 0 1 5.62 2.784a2.78 2.78 0 0 1-.66 1.8l2.582 1.524.9.548L16 2.425v.012a4.222 4.222 0 0 1-2.288 3.759l-3.227 1.657 3.22 1.647zm-8.133 3.383c0 1.53-1.25 2.775-2.786 2.775A2.784 2.784 0 0 1 0 12.883c0-1.201.771-2.223 1.846-2.609L4.79 8.642 7.016 9.87l-2.092 1.235c.405.482.65 1.102.65 1.778zm-3.876 0a1.088 1.088 0 0 0 2.179 0c0-.599-.489-1.085-1.089-1.085-.601 0-1.09.486-1.09 1.085z"/>
</svg>
